<?xml version="1.0" encoding="UTF-8"?>
<svg id="Layer_1" data-name="Layer 1" xmlns="http://www.w3.org/2000/svg" viewBox="0 0 234.5 203.18">
  <defs>
    <style>
      .cls-1, .cls-2, .cls-3, .cls-4, .cls-5, .cls-6, .cls-7, .cls-8, .cls-9, .cls-10, .cls-11 {
        fill-rule: evenodd;
      }

      .cls-1, .cls-12 {
        fill: #3695bc;
      }

      .cls-2 {
        fill: #3094ba;
      }

      .cls-3 {
        fill: #5aa6c1;
      }

      .cls-13 {
        fill: #58a8c5;
      }

      .cls-14 {
        fill: #ed1c24;
      }

      .cls-15 {
        fill: #52b2c7;
      }

      .cls-4 {
        fill: #037eac;
      }

      .cls-16 {
        fill: #4892c1;
      }

      .cls-5 {
        fill: #0196b8;
      }

      .cls-17, .cls-10 {
        fill: #b4d6e4;
      }

      .cls-18, .cls-6 {
        fill: #248db6;
      }

      .cls-19 {
        fill: #007dab;
      }

      .cls-20 {
        fill: #0079a8;
      }

      .cls-21 {
        fill: #479ebf;
      }

      .cls-22 {
        fill: #a9daeb;
      }

      .cls-23 {
        fill: #0178a7;
      }

      .cls-24 {
        fill: #85bdd3;
      }

      .cls-25 {
        fill: #dff0f5;
      }

      .cls-26 {
        fill: #5ca9c6;
      }

      .cls-7 {
        fill: #cbe3ed;
      }

      .cls-8 {
        fill: #3395ba;
      }

      .cls-9 {
        fill: #fbfdff;
      }

      .cls-27 {
        fill: #82bed5;
      }

      .cls-11 {
        fill: #e3f0f5;
      }
    </style>
  </defs>
  <g>
    <path class="cls-7" d="M196.7,61.75h-90.31V.86c9.03,3.13,9.51,13.8,17.07,14.91,8.79,1.29,25.07-5.68,29.98-3.1,4.91,2.58,16.28,8.79,24.29,8.27,8.01-.52,6.72,5.17,7.49,13.95.44,4.98,5.62,17.04,11.48,26.86Z"/>
    <rect class="cls-15" x="121.06" y="69.4" width="41.58" height="31.79"/>
    <path class="cls-2" d="M141.24,40.35h45.31c4.06,12.14,16.18,34.35,22.96,35.88,8.01,1.81,20.67-7.23,24.03-3.36,1.55,1.79,1.23,6.38-.91,12.11h-91.38v-44.63Z"/>
    <path class="cls-2" d="M141.24,40.35h45.31c.06.17.12.34.18.52l.02.06v.02s.01,0,.01,0l.18.5.05.14.15.43.03.09v.03s.22.56.22.56l.02.04c.15.39.3.79.46,1.19l.07.17.16.39.06.15.02.05.22.53.07.18.21.51.02.06.03.06.19.45v.02s.16.36.16.36l.11.24.13.3.2.46v.02s.16.34.16.34l.12.26.14.31.22.47.02.05.12.26.15.33.14.31.23.48.2.41.07.15.19.4.23.48c.31.64.64,1.29.96,1.93h0c.24.47.47.94.72,1.4l.07.13.22.42.26.48c.34.64.69,1.28,1.05,1.92h0c.62,1.12,1.25,2.22,1.89,3.3h-55.46v-21.4Z"/>
    <rect class="cls-16" x="141.24" y="69.4" width="21.4" height="15.59"/>
    <path class="cls-6" d="M141.85,13.31v14.81h-66.65V5.31C84.05,1.93,94.03-.12,101.23,0c14.21.26,13.44,14.47,22.22,15.76,4.89.72,12.11-1.13,18.4-2.46Z"/>
    <path class="cls-10" d="M106.39,28.12V.86h0s.14.05.14.05c.11.04.21.08.31.12l.2.08c.08.03.16.06.24.1l.2.09.23.11.19.09.22.11.19.1c.07.04.14.08.22.12l.17.1c.09.05.17.1.26.15.09.06.19.11.28.17.06.04.13.08.19.12.06.04.12.08.18.12l.19.13.16.12.18.14.17.13.17.14.16.13.18.15.15.13.17.15.13.12h0s.11.11.11.11l.18.17.14.14.16.16.15.16.13.14.15.16.15.17.11.13.16.18.12.14.15.18.1.12h0c.08.11.16.2.24.3h0s.14.19.14.19l.11.14.14.19.1.13.15.2.09.12.15.2.08.11.16.23.2.29v.02s.22.3.22.3l.02.03.19.27.06.08.15.22.09.13.12.17.12.18.08.12.16.23.05.07.19.27v.02s.22.29.22.29l.02.03c.16.22.32.44.47.66h0s.2.27.2.27l.08.11.14.19.07.1.2.26.03.04c.08.1.15.19.23.28v.02s.07.06.07.06l.18.22.06.07.18.21.07.08.17.18.09.1.16.16.09.09c.06.06.12.12.18.17l.08.07c.09.08.18.16.26.23l.02.02c.08.07.17.14.25.21l.09.07c.06.05.12.09.18.14l.11.08.18.13.1.07.19.12.11.07c.07.04.13.08.2.11l.11.06c.1.05.2.11.3.16h0s.03.01.03.01c.09.05.19.09.29.13l.12.05c.07.03.15.06.22.09l.12.04c.07.03.15.05.22.08l.13.04c.07.02.15.04.22.06l.15.04c.08.02.17.04.25.06l.11.02c.13.03.25.05.38.07.13.02.26.04.4.05h.03c.13.02.26.03.39.04h.05c.13.02.27.03.4.03h.04c.13,0,.27.02.4.02h.07c.14,0,.27,0,.41.01h0c.14,0,.28,0,.42,0h.06c.14,0,.29,0,.44,0h.03c.15,0,.29-.01.44-.02h.06c.15,0,.3-.02.44-.03h.04s.46-.04.46-.04h0s.01,0,.01,0c.33-.03.66-.06.99-.09h.01c.68-.07,1.37-.17,2.07-.27h.03s.46-.08.46-.08h.07s.14-.03.14-.03c.3-.05.6-.1.9-.15h.03s.54-.1.54-.1h.03c.9-.17,1.81-.35,2.72-.54h.04c.35-.08.71-.16,1.07-.23l.16-.03.31-.07.08-.02.23-.05.31-.07h.02s.29-.07.29-.07l.26-.06h.04s.3-.08.3-.08l.2-.04.11-.02.3-.07.13-.03.17-.04.3-.07.07-.02.23-.05.3-.06h.01s.29-.06.29-.06l.3-.06.3-.06v14.81h-35.46ZM125.23,15.92c.14,0,.27,0,.41,0h-.41ZM136.1,14.55c.36-.07.71-.15,1.07-.22l-1.07.22Z"/>
    <rect class="cls-24" x="115.7" y="108.52" width="60.08" height="41.62"/>
    <path class="cls-9" d="M148.73,92.93h80.09c-2.72,4.69-6.41,9.59-11.04,14.05-13.7,13.18-20.93,16.02-19.38,24.55.03.17.06.35.09.53h-49.75v-39.13Z"/>
    <rect class="cls-18" x="109.24" y="89.87" width="44.38" height="29.78"/>
    <rect class="cls-19" x="121.07" y="89.87" width="32.56" height="11.32"/>
    <rect class="cls-26" x="148.73" y="92.93" width="4.89" height="26.72"/>
    <rect class="cls-23" x="148.73" y="92.93" width="4.89" height="8.26"/>
    <path class="cls-4" d="M162.64,92.93h66.18c1.61-2.77,2.88-5.46,3.8-7.94h-69.98v7.94Z"/>
    <rect class="cls-12" x="63.28" y="45.54" width="31.49" height="31.49"/>
    <rect class="cls-18" x="33.02" y="19.86" width="21.71" height="21.71"/>
    <rect class="cls-17" x="59.99" y="37.95" width="16.55" height="16.55"/>
    <rect class="cls-17" x="87.49" y="68.68" width="36.72" height="36.72"/>
    <rect class="cls-27" x="20.94" y="68.32" width="18.04" height="18.04"/>
    <rect class="cls-22" y="48.3" width="11.62" height="11.62"/>
    <rect class="cls-16" x="71.32" y="92.63" width="9.08" height="9.08"/>
    <path class="cls-3" d="M208.68,115.25h-44.21v41.27h31.17c3.2-8.01,3.91-18.64,2.75-24.98-1.16-6.38,2.59-9.57,10.29-16.29Z"/>
    <rect class="cls-25" x="148.73" y="108.52" width="27.05" height="23.54"/>
    <path class="cls-5" d="M208.68,115.25h-44.21v16.82h34.01c-.03-.18-.06-.36-.09-.53-1.16-6.38,2.59-9.57,10.29-16.29Z"/>
    <rect class="cls-21" x="127.62" y="140.01" width="50.15" height="47.85"/>
    <rect class="cls-13" x="164.47" y="140.01" width="13.3" height="16.51"/>
    <path class="cls-8" d="M195.64,156.52h-50.58v45.24h23.37c2.76-2.77,4.98-5.78,6.45-8.72,4.13-8.27,11.11-11.37,10.34-14.21-.78-2.84-.52-8.01,6.2-15.25,1.72-1.85,3.12-4.3,4.22-7.06Z"/>
    <rect class="cls-20" x="145.06" y="156.52" width="32.71" height="31.34"/>
    <path class="cls-11" d="M203.88,119.52h-18.47v-26.59h43.41c-2.72,4.69-6.41,9.59-11.04,14.05-5.89,5.66-10.58,9.42-13.89,12.54Z"/>
    <path class="cls-1" d="M175.01,51.5h16.18c3.3,6.84,7.5,14.07,11.41,18.95h-27.59v-18.95Z"/>
  </g>
  <path class="cls-14" d="M128.98,193.82c-1.3,3.63.59,7.65,4.23,8.95,3.63,1.3,7.65-.59,8.95-4.22,1.3-3.63-.59-7.65-4.22-8.95-3.63-1.3-7.65.59-8.95,4.22Z"/>
  <path class="cls-14" d="M165.59,103.38c-1.02,2.85.47,6.01,3.32,7.03,2.85,1.02,6.01-.47,7.03-3.32,1.02-2.86-.47-6.01-3.32-7.03-2.85-1.02-6.01.46-7.03,3.32Z"/>
  <path class="cls-14" d="M64.96,17.92c-1.3,3.63.59,7.65,4.23,8.95,3.63,1.3,7.65-.59,8.95-4.22,1.3-3.63-.59-7.65-4.22-8.95-3.63-1.3-7.65.59-8.95,4.22Z"/>
  <g>
    <path class="cls-14" d="M130.63,63.73c-.74-2.65-3.5-4.21-6.16-3.47-2.65.74-4.21,3.5-3.47,6.16.74,2.66,3.5,4.21,6.16,3.47,2.65-.74,4.21-3.51,3.47-6.16Z"/>
    <path class="cls-14" d="M60.34,84.73c-.74-2.65-3.5-4.21-6.16-3.47-2.65.74-4.21,3.5-3.47,6.16.74,2.66,3.5,4.21,6.16,3.47,2.65-.74,4.21-3.51,3.47-6.16Z"/>
    <path class="cls-14" d="M187.99,59.69c-.74-2.65-3.5-4.21-6.16-3.47-2.65.74-4.21,3.5-3.47,6.16.74,2.66,3.5,4.21,6.16,3.47,2.65-.74,4.21-3.51,3.47-6.16Z"/>
    <path class="cls-14" d="M189.99,175.69c-.74-2.65-3.5-4.21-6.16-3.47-2.65.74-4.21,3.5-3.47,6.16.74,2.66,3.5,4.21,6.16,3.47,2.65-.74,4.21-3.51,3.47-6.16Z"/>
  </g>
  <polyline class="cls-20" points="212.87 160.17 217 160.17 205.55 190.36 197.54 190.36 197.54 180.54 203.29 174.79 203.29 167.51 213.89 160.17"/>
</svg>